<svg xmlns="http://www.w3.org/2000/svg" viewBox="0 0 260 70" width="260" height="70">
  <g transform="translate(10, 10)">
    <!-- Comfama Icon Symbol -->
    <path d="M 22 8 C 11 8 2 17 2 28 C 2 39 11 48 22 48 C 30 48 37 42 39.5 34 L 29 34 C 27.5 37.5 24 40 22 40 C 15.5 40 10 34.5 10 28 C 10 21.5 15.5 16 22 16 C 24 16 27.5 18.5 29 22 L 39.5 22 C 37 14 30 8 22 8 Z" fill="#DF729E"/>
    <circle cx="44" cy="28" r="6" fill="#DF729E"/>
    <!-- Comfama Text -->
    <text x="60" y="38" font-family="'Inter', 'Montserrat', sans-serif" font-weight="900" font-size="32" fill="#DF729E" letter-spacing="-1">comfama</text>
  </g>
</svg>
